<svg xmlns="http://www.w3.org/2000/svg" width="114.47" height="109.152" viewBox="0 0 114.47 109.152">
  <path id="Path_23" data-name="Path 23" d="M114.47,42.293q0-2.659-3.8-3.039L76.229,34.189l-15.7-31.4C59.768,1.013,58.5,0,57.235,0S54.7,1.013,53.943,2.786l-15.448,31.4L4.052,39.254C1.266,39.507,0,40.52,0,42.293c0,1.013.507,2.026,1.773,3.292L26.845,69.9,20.767,104.34a5.152,5.152,0,0,1-.253,1.266,4.278,4.278,0,0,0,.76,2.533,2.469,2.469,0,0,0,2.279,1.013,6.6,6.6,0,0,0,2.786-.76l30.9-16.208,30.9,16.208a5.773,5.773,0,0,0,2.786.76,2.055,2.055,0,0,0,2.026-1.013,4.278,4.278,0,0,0,.76-2.533V104.34L87.879,69.9,112.95,45.585C113.71,44.319,114.47,43.306,114.47,42.293Z" transform="translate(0)" fill="#fc0"/>
</svg>
